<?xml version="1.0" encoding="UTF-8" standalone="no"?>
<svg
   xmlns:svg="http://www.w3.org/2000/svg"
   xmlns="http://www.w3.org/2000/svg"
   xmlns:xlink="http://www.w3.org/1999/xlink"
   version="1.0"
   width="46.072842"
   height="45.315193"
   id="svg2">
  <defs
     id="defs4">
    <linearGradient
       id="linearGradient3244">
      <stop
         id="stop3246"
         style="stop-color:#4d4d4d;stop-opacity:1"
         offset="0" />
      <stop
         id="stop3248"
         style="stop-color:#696969;stop-opacity:1"
         offset="1" />
    </linearGradient>
    <radialGradient
       cx="128.27917"
       cy="424.38605"
       r="26.008669"
       fx="128.27917"
       fy="424.38605"
       id="radialGradient3252"
       xlink:href="#linearGradient3244"
       gradientUnits="userSpaceOnUse"
       gradientTransform="matrix(0.9417573,-0.5909254,1.0186452,1.6234132,-425.06983,-189.60823)" />
    <radialGradient
       cx="128.27917"
       cy="424.38605"
       r="26.008669"
       fx="128.27917"
       fy="424.38605"
       id="radialGradient3256"
       xlink:href="#linearGradient3244"
       gradientUnits="userSpaceOnUse"
       gradientTransform="matrix(0.9417573,-0.5909254,1.0186452,1.6234132,-425.06983,-189.60823)" />
  </defs>
  <g
     transform="translate(-220.38782,-457.26376)"
     id="layer1">
    <path
       d="M 125.25891,457.63486 C 120.00155,455.36589 126.98955,453.77559 122.49859,450.22324 C 118.00762,446.67088 118.06906,453.83729 114.65053,449.24363 C 111.23201,444.64997 118.07895,446.76673 115.96583,441.44481 C 113.85272,436.12289 110.32272,442.35991 109.65902,436.67242 C 108.99532,430.98493 113.86657,436.24156 114.69751,430.57609 C 115.52846,424.91062 109.35289,428.54703 111.62185,423.28967 C 113.89082,418.03231 115.48112,425.02032 119.03348,420.52935 C 122.58584,416.03838 115.41942,416.09982 120.01309,412.68129 C 124.60675,409.26277 122.48999,416.10971 127.8119,413.99659 C 133.13382,411.88348 126.89681,408.35348 132.5843,407.68978 C 138.27179,407.02609 133.01515,411.89733 138.68062,412.72828 C 144.34609,413.55922 140.70968,407.38365 145.96704,409.65261 C 151.2244,411.92158 144.2364,413.51188 148.72737,417.06424 C 153.21833,420.6166 153.1569,413.45019 156.57542,418.04385 C 159.99394,422.63751 153.14701,420.52075 155.26012,425.84267 C 157.37323,431.16458 160.90323,424.92757 161.56693,430.61506 C 162.23063,436.30255 157.35939,431.04591 156.52844,436.71138 C 155.69749,442.37686 161.87307,438.74044 159.6041,443.9978 C 157.33513,449.25516 155.74483,442.26716 152.19247,446.75813 C 148.64012,451.2491 155.80653,451.18766 151.21287,454.60618 C 146.6192,458.02471 148.73596,451.17777 143.41405,453.29088 C 138.09213,455.404 144.32915,458.93399 138.64165,459.59769 C 132.95416,460.26139 138.2108,455.39015 132.54533,454.5592 C 126.87986,453.72825 130.51627,459.90383 125.25891,457.63486 z"
       transform="matrix(0.8255201,9.4120585e-2,-9.4120585e-2,0.8255201,170.96199,108.22877)"
       id="path2470"
       style="opacity:1;fill:url(#radialGradient3252);fill-opacity:1;fill-rule:nonzero;stroke:none;stroke-opacity:0.80608371" />
    <path
       d="M 125.25891,457.63486 C 120.00155,455.36589 126.98955,453.77559 122.49859,450.22324 C 118.00762,446.67088 118.06906,453.83729 114.65053,449.24363 C 111.23201,444.64997 118.07895,446.76673 115.96583,441.44481 C 113.85272,436.12289 110.32272,442.35991 109.65902,436.67242 C 108.99532,430.98493 113.86657,436.24156 114.69751,430.57609 C 115.52846,424.91062 109.35289,428.54703 111.62185,423.28967 C 113.89082,418.03231 115.48112,425.02032 119.03348,420.52935 C 122.58584,416.03838 115.41942,416.09982 120.01309,412.68129 C 124.60675,409.26277 122.48999,416.10971 127.8119,413.99659 C 133.13382,411.88348 126.89681,408.35348 132.5843,407.68978 C 138.27179,407.02609 133.01515,411.89733 138.68062,412.72828 C 144.34609,413.55922 140.70968,407.38365 145.96704,409.65261 C 151.2244,411.92158 144.2364,413.51188 148.72737,417.06424 C 153.21833,420.6166 153.1569,413.45019 156.57542,418.04385 C 159.99394,422.63751 153.14701,420.52075 155.26012,425.84267 C 157.37323,431.16458 160.90323,424.92757 161.56693,430.61506 C 162.23063,436.30255 157.35939,431.04591 156.52844,436.71138 C 155.69749,442.37686 161.87307,438.74044 159.6041,443.9978 C 157.33513,449.25516 155.74483,442.26716 152.19247,446.75813 C 148.64012,451.2491 155.80653,451.18766 151.21287,454.60618 C 146.6192,458.02471 148.73596,451.17777 143.41405,453.29088 C 138.09213,455.404 144.32915,458.93399 138.64165,459.59769 C 132.95416,460.26139 138.2108,455.39015 132.54533,454.5592 C 126.87986,453.72825 130.51627,459.90383 125.25891,457.63486 z"
       transform="matrix(0.8255201,9.4120585e-2,-9.4120585e-2,0.8255201,173.61362,110.12275)"
       id="path3254"
       style="opacity:0.27333332;fill:url(#radialGradient3256);fill-opacity:1;stroke:none;stroke-opacity:0.80608371" />
    <rect
       width="8.4995823"
       height="23.130014"
       x="237.07906"
       y="466.77795"
       transform="matrix(0.9251804,0,0,1.0092505,18.453569,-4.1597178)"
       id="rect3258"
       style="opacity:1;fill:#c0e060;fill-opacity:1;fill-rule:nonzero;stroke:#c0e000;stroke-width:1.10349607;stroke-opacity:1" />
    <rect
       width="8.4995823"
       height="23.130014"
       x="474.07291"
       y="-252.73892"
       transform="matrix(0,1.0050428,-0.9924189,0,2.3257947,-2.1470884)"
       id="rect3260"
       style="opacity:1;fill:#c0e060;fill-opacity:1;fill-rule:nonzero;stroke:#c0e000;stroke-width:1.10349607;stroke-opacity:1" />
    <rect
       width="6.8256087"
       height="10.309013"
       x="238.31891"
       y="473.63138"
       id="rect3262"
       style="opacity:1;fill:#c0e060;fill-opacity:1;fill-rule:nonzero;stroke:none;stroke-width:0.60781389;stroke-opacity:1" />
  </g>
</svg>
