<?xml version="1.0" encoding="UTF-8" standalone="no"?>
<svg
   xmlns:dc="http://purl.org/dc/elements/1.1/"
   xmlns:cc="http://creativecommons.org/ns#"
   xmlns:rdf="http://www.w3.org/1999/02/22-rdf-syntax-ns#"
   xmlns:svg="http://www.w3.org/2000/svg"
   xmlns="http://www.w3.org/2000/svg"
   xmlns:xlink="http://www.w3.org/1999/xlink"
   xmlns:sodipodi="http://sodipodi.sourceforge.net/DTD/sodipodi-0.dtd"
   xmlns:inkscape="http://www.inkscape.org/namespaces/inkscape"
   version="1.0"
   width="46"
   height="46"
   id="svg2"
   inkscape:version="0.48.4 r9939"
   sodipodi:docname="icon.svg">
  <metadata
     id="metadata17">
    <rdf:RDF>
      <cc:Work
         rdf:about="">
        <dc:format>image/svg+xml</dc:format>
        <dc:type
           rdf:resource="http://purl.org/dc/dcmitype/StillImage" />
      </cc:Work>
    </rdf:RDF>
  </metadata>
  <sodipodi:namedview
     pagecolor="#ffffff"
     bordercolor="#666666"
     borderopacity="1"
     objecttolerance="10"
     gridtolerance="10"
     guidetolerance="10"
     inkscape:pageopacity="0"
     inkscape:pageshadow="2"
     inkscape:window-width="1920"
     inkscape:window-height="1014"
     id="namedview15"
     showgrid="false"
     inkscape:zoom="10.415933"
     inkscape:cx="1.3068518"
     inkscape:cy="22.628164"
     inkscape:window-x="1920"
     inkscape:window-y="27"
     inkscape:window-maximized="1"
     inkscape:current-layer="svg2" />
  <defs
     id="defs4">
    <linearGradient
       id="linearGradient3244">
      <stop
         id="stop3246"
         style="stop-color:#4d4d4d;stop-opacity:1"
         offset="0" />
      <stop
         id="stop3248"
         style="stop-color:#696969;stop-opacity:1"
         offset="1" />
    </linearGradient>
    <radialGradient
       cx="128.27917"
       cy="424.38605"
       r="26.008669"
       fx="128.27917"
       fy="424.38605"
       id="radialGradient3252"
       xlink:href="#linearGradient3244"
       gradientUnits="userSpaceOnUse"
       gradientTransform="matrix(0.9417573,-0.5909254,1.0186452,1.6234132,-425.06983,-189.60823)" />
    <radialGradient
       cx="128.27917"
       cy="424.38605"
       r="26.008669"
       fx="128.27917"
       fy="424.38605"
       id="radialGradient3256"
       xlink:href="#linearGradient3244"
       gradientUnits="userSpaceOnUse"
       gradientTransform="matrix(0.9417573,-0.5909254,1.0186452,1.6234132,-425.06983,-189.60823)" />
    <radialGradient
       inkscape:collect="always"
       xlink:href="#linearGradient3244"
       id="radialGradient2998"
       gradientUnits="userSpaceOnUse"
       gradientTransform="matrix(0.83305783,-0.39918204,0.68811548,1.4360357,-379.86827,-543.33183)"
       cx="128.27917"
       cy="424.38605"
       fx="128.27917"
       fy="424.38605"
       r="26.008669" />
    <radialGradient
       inkscape:collect="always"
       xlink:href="#linearGradient3244"
       id="radialGradient3001"
       gradientUnits="userSpaceOnUse"
       gradientTransform="matrix(0.83305783,-0.39918204,0.68811548,1.4360357,-382.5199,-545.22581)"
       cx="128.27917"
       cy="424.38605"
       fx="128.27917"
       fy="424.38605"
       r="26.008669" />
    <radialGradient
       inkscape:collect="always"
       xlink:href="#linearGradient3244"
       id="radialGradient3775"
       gradientUnits="userSpaceOnUse"
       gradientTransform="matrix(0.83305783,-0.39918204,0.68811548,1.4360357,-382.5199,-545.22581)"
       cx="128.27917"
       cy="424.38605"
       fx="128.27917"
       fy="424.38605"
       r="26.008669" />
    <radialGradient
       inkscape:collect="always"
       xlink:href="#linearGradient3244"
       id="radialGradient3777"
       gradientUnits="userSpaceOnUse"
       gradientTransform="matrix(0.83305783,-0.39918204,0.68811548,1.4360357,-379.86827,-543.33183)"
       cx="128.27917"
       cy="424.38605"
       fx="128.27917"
       fy="424.38605"
       r="26.008669" />
    <radialGradient
       inkscape:collect="always"
       xlink:href="#linearGradient3244"
       id="radialGradient3785"
       gradientUnits="userSpaceOnUse"
       gradientTransform="matrix(0.83174073,-0.40521452,0.68702754,1.4577372,-379.26774,-552.23229)"
       cx="128.27917"
       cy="424.38605"
       fx="128.27917"
       fy="424.38605"
       r="26.008669" />
    <radialGradient
       inkscape:collect="always"
       xlink:href="#linearGradient3244"
       id="radialGradient3788"
       gradientUnits="userSpaceOnUse"
       gradientTransform="matrix(0.83174073,-0.40521452,0.68702754,1.4577372,-381.91518,-554.1549)"
       cx="128.27917"
       cy="424.38605"
       fx="128.27917"
       fy="424.38605"
       r="26.008669" />
    <radialGradient
       inkscape:collect="always"
       xlink:href="#linearGradient3244"
       id="radialGradient3798"
       gradientUnits="userSpaceOnUse"
       gradientTransform="matrix(0.83174073,-0.40521452,0.68702754,1.4577372,-381.91518,-554.1549)"
       cx="128.27917"
       cy="424.38605"
       fx="128.27917"
       fy="424.38605"
       r="26.008669" />
    <radialGradient
       inkscape:collect="always"
       xlink:href="#linearGradient3244"
       id="radialGradient3800"
       gradientUnits="userSpaceOnUse"
       gradientTransform="matrix(0.83174073,-0.40521452,0.68702754,1.4577372,-379.26774,-552.23229)"
       cx="128.27917"
       cy="424.38605"
       fx="128.27917"
       fy="424.38605"
       r="26.008669" />
  </defs>
  <g
     id="g3790"
     transform="translate(0.03642434,0.34199834)">
    <path
       d="M 10.851394,40.811896 C 6.7314181,38.408206 12.640476,37.743196 9.2727798,34.337264 5.9050769,30.931321 5.2822763,36.942611 2.8963473,32.766528 0.51042654,28.590446 5.9548609,31.018458 4.7133062,26.35682 3.4717597,21.695183 -0.02382282,26.584511 -0.0363907,21.755007 -0.04895858,16.925505 3.4720234,21.795951 4.6892909,17.127703 5.9065666,12.459456 0.47484976,14.91672 2.8390039,10.727859 5.2031664,6.538999 5.8572396,12.546861 9.2071722,9.1228521 12.557105,5.6988426 6.6446608,5.0656282 10.752078,2.6398084 14.859485,0.21399605 12.4714,5.749459 17.056372,4.4871451 c 4.584978,-1.2623046 -0.223938,-4.81633084 4.526145,-4.82910883 4.750083,-0.0127696 -0.04028,3.56707233 4.551201,4.80470043 4.591481,1.2376196 2.174627,-4.28491321 6.294603,-1.8812314 4.119975,2.4036902 -1.789082,3.0687002 1.578621,6.4746422 3.367695,3.4059405 3.990504,-2.605347 6.376424,1.5707345 2.385921,4.176082 -3.058505,1.748071 -1.816959,6.409708 1.241548,4.661629 4.737129,-0.22769 4.749697,4.601812 0.01257,4.829503 -3.508405,-0.04095 -4.72568,4.627296 -1.217278,4.668255 4.214449,2.210986 1.850287,6.399845 -2.364163,4.18886 -3.018237,-1.818995 -6.36817,1.605015 -3.349924,3.42401 2.562511,4.057224 -1.544896,6.483036 -4.107416,2.42582 -1.719332,-3.109643 -6.304302,-1.847337 -4.58498,1.262312 0.223945,4.816331 -4.526146,4.829108 -4.750083,0.01278 0.04028,-3.567064 -4.551202,-4.804692 -4.591479,-1.237627 -2.174626,4.284913 -6.294601,1.881223 z"
       id="path2470"
       style="fill:url(#radialGradient3798);fill-opacity:1;fill-rule:nonzero;stroke:none"
       inkscape:connector-curvature="0" />
    <path
       d="m 13.498831,42.734498 c -4.1199752,-2.40369 1.789082,-3.0687 -1.578614,-6.474632 C 8.5525145,32.853923 7.929714,38.865213 5.543785,34.68913 3.1578642,30.513048 8.6022986,32.94106 7.3607439,28.279422 6.1191974,23.617785 2.6236148,28.507113 2.6110469,23.677609 2.5984788,18.848107 6.1194611,23.718549 7.3367286,19.050305 8.5540043,14.382058 3.1222874,16.839322 5.4864416,12.650461 7.850604,8.461601 8.5046773,14.469463 11.85461,11.045454 15.204542,7.6214446 9.2920985,6.9882302 13.399516,4.5624104 17.506922,2.136598 15.118838,7.672061 19.703809,6.4097471 24.288788,5.1474425 19.479872,1.5934163 24.229955,1.5806383 c 4.750082,-0.012769 -0.04028,3.5670723 4.551201,4.8047005 4.59148,1.2376196 2.174626,-4.2849133 6.294602,-1.8812315 4.119976,2.4036903 -1.789082,3.0687002 1.578622,6.4746427 3.367695,3.40594 3.990503,-2.6053475 6.376424,1.570734 2.385921,4.176082 -3.058506,1.748071 -1.81696,6.409708 1.241548,4.661629 4.73713,-0.22769 4.749698,4.601812 0.01257,4.829503 -3.508405,-0.04095 -4.725681,4.627296 -1.217277,4.668255 4.21445,2.210986 1.850287,6.399845 -2.364162,4.18886 -3.018236,-1.818995 -6.368169,1.605015 -3.349925,3.42401 2.562511,4.057224 -1.544896,6.483036 -4.107417,2.42582 -1.719332,-3.109643 -6.304303,-1.847337 -4.584979,1.262312 0.223946,4.816331 -4.526145,4.829108 -4.750084,0.01278 0.04028,-3.567064 -4.551202,-4.804692 -4.59148,-1.237627 -2.174627,4.284913 -6.294602,1.881223 z"
       id="path3254"
       style="opacity:0.27333332;fill:url(#radialGradient3800);fill-opacity:1;stroke:none"
       inkscape:connector-curvature="0" />
    <g
       transform="translate(0.58742269,0.00988731)"
       id="g3779">
      <rect
         style="fill:#c0e060;fill-opacity:1;fill-rule:nonzero;stroke:#c0e000;stroke-width:1.06631005;stroke-opacity:1"
         id="rect3258"
         y="10.014813"
         x="17.120434"
         height="23.344"
         width="7.8639998" />
      <rect
         style="fill:#c0e060;fill-opacity:1;fill-rule:nonzero;stroke:#c0e000;stroke-width:1.10207355;stroke-opacity:1"
         id="rect3260"
         y="-32.724434"
         x="17.754814"
         height="23.344"
         width="7.8639998"
         transform="matrix(0,1,-1,0,0,0)" />
      <rect
         style="fill:#c0e060;fill-opacity:1;fill-rule:nonzero;stroke:none"
         id="rect3262"
         y="16.532307"
         x="17.639629"
         height="10.309013"
         width="6.8256087" />
    </g>
  </g>
</svg>
